<svg width="64" height="64" viewBox="0 0 64 64" fill="none" xmlns="http://www.w3.org/2000/svg">
  <!-- Scale/Balance Icon for Legal -->
  <path d="M32 8L12 20V32C12 42.5 20 50 32 56C44 50 52 42.5 52 32V20L32 8Z" fill="url(#gradient1)"/>
  <path d="M32 8L12 20V32C12 42.5 20 50 32 56C44 50 52 42.5 52 32V20L32 8Z" fill="url(#gradient2)" opacity="0.8"/>
  
  <!-- Scale base -->
  <rect x="28" y="20" width="8" height="4" rx="2" fill="url(#gradient3)"/>
  
  <!-- Scale pans -->
  <ellipse cx="20" cy="28" rx="6" ry="2" fill="url(#gradient3)"/>
  <ellipse cx="44" cy="28" rx="6" ry="2" fill="url(#gradient3)"/>
  
  <!-- Scale chains -->
  <line x1="20" y1="28" x2="28" y2="22" stroke="url(#gradient3)" stroke-width="1.5"/>
  <line x1="44" y1="28" x2="36" y2="22" stroke="url(#gradient3)" stroke-width="1.5"/>
  
  <!-- Document icon overlay -->
  <path d="M26 38H38V50H26V38Z" fill="url(#gradient4)" opacity="0.9"/>
  <line x1="28" y1="42" x2="36" y2="42" stroke="white" stroke-width="1.5" stroke-linecap="round"/>
  <line x1="28" y1="46" x2="34" y2="46" stroke="white" stroke-width="1.5" stroke-linecap="round"/>
  
  <defs>
    <linearGradient id="gradient1" x1="32" y1="8" x2="32" y2="56" gradientUnits="userSpaceOnUse">
      <stop offset="0%" stop-color="#FF6B35"/>
      <stop offset="100%" stop-color="#4A90E2"/>
    </linearGradient>
    <linearGradient id="gradient2" x1="12" y1="20" x2="52" y2="32" gradientUnits="userSpaceOnUse">
      <stop offset="0%" stop-color="#FF6B35" stop-opacity="0.6"/>
      <stop offset="100%" stop-color="#4A90E2" stop-opacity="0.6"/>
    </linearGradient>
    <linearGradient id="gradient3" x1="20" y1="20" x2="44" y2="30" gradientUnits="userSpaceOnUse">
      <stop offset="0%" stop-color="#FF6B35"/>
      <stop offset="100%" stop-color="#4A90E2"/>
    </linearGradient>
    <linearGradient id="gradient4" x1="26" y1="38" x2="38" y2="50" gradientUnits="userSpaceOnUse">
      <stop offset="0%" stop-color="#4A90E2"/>
      <stop offset="100%" stop-color="#2E5C8A"/>
    </linearGradient>
  </defs>
</svg>

